<svg id="visual" viewBox="0 0 1920 1080" width="1920" height="1080" xmlns="http://www.w3.org/2000/svg" xmlns:xlink="http://www.w3.org/1999/xlink" version="1.1"><path d="M0 401L29.2 402.7C58.3 404.3 116.7 407.7 174.8 391.3C233 375 291 339 349.2 321C407.3 303 465.7 303 523.8 283.3C582 263.7 640 224.3 698.2 217.2C756.3 210 814.7 235 872.8 253C931 271 989 282 1047.2 280.2C1105.3 278.3 1163.7 263.7 1221.8 260C1280 256.3 1338 263.7 1396.2 269.2C1454.3 274.7 1512.7 278.3 1570.8 292.7C1629 307 1687 332 1745.2 324.8C1803.3 317.7 1861.7 278.3 1890.8 258.7L1920 239L1920 0L1890.8 0C1861.7 0 1803.3 0 1745.2 0C1687 0 1629 0 1570.8 0C1512.7 0 1454.3 0 1396.2 0C1338 0 1280 0 1221.8 0C1163.7 0 1105.3 0 1047.2 0C989 0 931 0 872.8 0C814.7 0 756.3 0 698.2 0C640 0 582 0 523.8 0C465.7 0 407.3 0 349.2 0C291 0 233 0 174.8 0C116.7 0 58.3 0 29.2 0L0 0Z" fill="#f26883"></path><path d="M0 552L29.2 577.2C58.3 602.3 116.7 652.7 174.8 645.5C233 638.3 291 573.7 349.2 541.3C407.3 509 465.7 509 523.8 492.7C582 476.3 640 443.7 698.2 441.8C756.3 440 814.7 469 872.8 490.7C931 512.3 989 526.7 1047.2 501.5C1105.3 476.3 1163.7 411.7 1221.8 418.8C1280 426 1338 505 1396.2 544.5C1454.3 584 1512.7 584 1570.8 584C1629 584 1687 584 1745.2 562.5C1803.3 541 1861.7 498 1890.8 476.5L1920 455L1920 237L1890.8 256.7C1861.7 276.3 1803.3 315.7 1745.2 322.8C1687 330 1629 305 1570.8 290.7C1512.7 276.3 1454.3 272.7 1396.2 267.2C1338 261.7 1280 254.3 1221.8 258C1163.7 261.7 1105.3 276.3 1047.2 278.2C989 280 931 269 872.8 251C814.7 233 756.3 208 698.2 215.2C640 222.3 582 261.7 523.8 281.3C465.7 301 407.3 301 349.2 319C291 337 233 373 174.8 389.3C116.7 405.7 58.3 402.3 29.2 400.7L0 399Z" fill="#eb4668"></path><path d="M0 671L29.2 692.5C58.3 714 116.7 757 174.8 742.5C233 728 291 656 349.2 629C407.3 602 465.7 620 523.8 609.2C582 598.3 640 558.7 698.2 565.8C756.3 573 814.7 627 872.8 652.3C931 677.7 989 674.3 1047.2 643.8C1105.3 613.3 1163.7 555.7 1221.8 566.3C1280 577 1338 656 1396.2 690.2C1454.3 724.3 1512.7 713.7 1570.8 724.5C1629 735.3 1687 767.7 1745.2 756.8C1803.3 746 1861.7 692 1890.8 665L1920 638L1920 453L1890.8 474.5C1861.7 496 1803.3 539 1745.2 560.5C1687 582 1629 582 1570.8 582C1512.7 582 1454.3 582 1396.2 542.5C1338 503 1280 424 1221.8 416.8C1163.7 409.7 1105.3 474.3 1047.2 499.5C989 524.7 931 510.3 872.8 488.7C814.7 467 756.3 438 698.2 439.8C640 441.7 582 474.3 523.8 490.7C465.7 507 407.3 507 349.2 539.3C291 571.7 233 636.3 174.8 643.5C116.7 650.7 58.3 600.3 29.2 575.2L0 550Z" fill="#e10f4c"></path><path d="M0 1005L29.2 1005C58.3 1005 116.7 1005 174.8 1003.3C233 1001.7 291 998.3 349.2 1000.2C407.3 1002 465.7 1009 523.8 992.7C582 976.3 640 936.7 698.2 924.2C756.3 911.7 814.7 926.3 872.8 930C931 933.7 989 926.3 1047.2 920.8C1105.3 915.3 1163.7 911.7 1221.8 927.8C1280 944 1338 980 1396.2 998C1454.3 1016 1512.7 1016 1570.8 1010.7C1629 1005.3 1687 994.7 1745.2 991.2C1803.3 987.7 1861.7 991.3 1890.8 993.2L1920 995L1920 636L1890.8 663C1861.7 690 1803.3 744 1745.2 754.8C1687 765.7 1629 733.3 1570.8 722.5C1512.7 711.7 1454.3 722.3 1396.2 688.2C1338 654 1280 575 1221.8 564.3C1163.7 553.7 1105.3 611.3 1047.2 641.8C989 672.3 931 675.7 872.8 650.3C814.7 625 756.3 571 698.2 563.8C640 556.7 582 596.3 523.8 607.2C465.7 618 407.3 600 349.2 627C291 654 233 726 174.8 740.5C116.7 755 58.3 712 29.2 690.5L0 669Z" fill="#c30c43"></path><path d="M0 1081L29.2 1081C58.3 1081 116.7 1081 174.8 1081C233 1081 291 1081 349.2 1081C407.3 1081 465.7 1081 523.8 1081C582 1081 640 1081 698.2 1081C756.3 1081 814.7 1081 872.8 1081C931 1081 989 1081 1047.2 1081C1105.3 1081 1163.7 1081 1221.8 1081C1280 1081 1338 1081 1396.2 1081C1454.3 1081 1512.7 1081 1570.8 1081C1629 1081 1687 1081 1745.2 1081C1803.3 1081 1861.7 1081 1890.8 1081L1920 1081L1920 993L1890.8 991.2C1861.7 989.3 1803.3 985.7 1745.2 989.2C1687 992.7 1629 1003.3 1570.8 1008.7C1512.7 1014 1454.3 1014 1396.2 996C1338 978 1280 942 1221.8 925.8C1163.7 909.7 1105.3 913.3 1047.2 918.8C989 924.3 931 931.7 872.8 928C814.7 924.3 756.3 909.7 698.2 922.2C640 934.7 582 974.3 523.8 990.7C465.7 1007 407.3 1000 349.2 998.2C291 996.3 233 999.7 174.8 1001.3C116.7 1003 58.3 1003 29.2 1003L0 1003Z" fill="#a50a3a"></path></svg>