<?xml version="1.0" encoding="UTF-8"?>
<svg xmlns="http://www.w3.org/2000/svg" xmlns:xlink="http://www.w3.org/1999/xlink" width="927.59pt" height="282.92pt" viewBox="0 0 927.59 282.92" version="1.1">
<defs>
<clipPath id="clip1">
  <path d="M 899 161 L 927.589844 161 L 927.589844 190 L 899 190 Z M 899 161 "/>
</clipPath>
</defs>
<g id="surface1">
<path style=" stroke:none;fill-rule:nonzero;fill:rgb(2.69928%,40.79895%,69.398499%);fill-opacity:1;" d="M 443.429688 30.476563 C 420 9.960938 389.867188 0.00390625 358.578125 0.00390625 C 357.808594 0.00390625 357.046875 0.0429688 356.273438 0.0546875 C 355.511719 0.0429688 354.738281 0.00390625 353.980469 0.00390625 C 322.691406 0.00390625 292.554688 9.960938 269.121094 30.476563 C 267.597656 31.820313 265.191406 34.542969 265.714844 36.507813 C 266.238281 38.480469 269.59375 39.351563 271.589844 39.765625 C 298.675781 45.28125 324.691406 55.878906 345.863281 68.199219 C 348.777344 69.996094 351.234375 71.539063 353.273438 72.839844 C 354.15625 73.40625 355.15625 73.6875 356.164063 73.6875 C 356.199219 73.6875 356.246094 73.664063 356.273438 73.664063 C 356.324219 73.664063 356.351563 73.6875 356.394531 73.6875 C 357.394531 73.6875 358.398438 73.40625 359.28125 72.839844 C 361.3125 71.539063 363.769531 69.996094 366.691406 68.199219 C 387.863281 55.878906 413.875 45.28125 440.96875 39.765625 C 442.960938 39.351563 446.320313 38.480469 446.839844 36.507813 C 447.363281 34.542969 444.957031 31.820313 443.429688 30.476563 "/>
<path style=" stroke:none;fill-rule:nonzero;fill:rgb(2.69928%,40.79895%,69.398499%);fill-opacity:1;" d="M 239.269531 154.007813 C 236.144531 154.019531 233.082031 153.484375 230.167969 152.425781 C 228.234375 151.726563 226.84375 150.027344 226.542969 147.996094 C 225.609375 141.625 225.113281 135.148438 225.097656 128.769531 C 225.019531 107.628906 230 86.507813 239.511719 67.699219 C 240.460938 65.824219 242.355469 64.648438 244.460938 64.644531 C 245.332031 64.632813 246.175781 64.824219 246.96875 65.222656 C 251.015625 67.238281 255.09375 69.519531 259.0625 72.007813 C 260.527344 72.917969 261.464844 74.429688 261.660156 76.121094 C 261.847656 77.820313 261.253906 79.496094 260.027344 80.707031 C 250.289063 90.335938 244.734375 103.660156 244.785156 117.265625 C 244.824219 126.65625 247.433594 135.816406 252.320313 143.738281 C 253.175781 145.101563 253.386719 146.773438 252.90625 148.320313 C 252.433594 149.871094 251.296875 151.117188 249.828125 151.769531 C 246.492188 153.238281 242.9375 153.984375 239.269531 154.007813 "/>
<path style=" stroke:none;fill-rule:nonzero;fill:rgb(2.69928%,40.79895%,69.398499%);fill-opacity:1;" d="M 479.917969 47.210938 C 479.714844 45.816406 478.566406 43.429688 473.378906 42.984375 C 473.28125 42.980469 473.113281 42.980469 473.035156 42.980469 L 473.015625 42.980469 C 448.605469 42.984375 437.632813 47.199219 415.039063 55.386719 C 387.507813 65.34375 367.402344 77.921875 359.367188 83.367188 C 358.359375 83.886719 357.273438 84.3125 356.152344 84.3125 C 354.628906 84.3125 353.179688 83.34375 351.886719 82.640625 C 343.230469 76.867188 323.671875 64.929688 297.296875 55.386719 C 274.703125 47.199219 263.730469 42.984375 239.324219 42.980469 L 239.308594 42.980469 C 239.230469 42.980469 239.046875 42.980469 238.964844 42.984375 C 233.761719 43.429688 232.625 45.816406 232.417969 47.210938 C 232.394531 47.429688 232.363281 47.691406 232.382813 47.953125 C 232.382813 47.980469 232.390625 48.011719 232.390625 48.046875 C 232.394531 48.234375 232.425781 48.4375 232.464844 48.65625 C 232.476563 48.664063 232.476563 48.664063 232.476563 48.679688 C 232.476563 48.6875 232.484375 48.691406 232.484375 48.695313 C 232.566406 49.074219 232.722656 49.464844 232.957031 49.878906 C 233.667969 51.105469 235.183594 52.421875 238.226563 53.496094 C 238.328125 53.535156 238.433594 53.582031 238.539063 53.621094 C 238.933594 53.769531 239.296875 53.914063 239.679688 54.058594 C 268.058594 64.648438 286.398438 79.421875 303.0625 95.480469 C 324.90625 117.367188 339.261719 149.511719 347.964844 181.9375 C 349.292969 185.421875 352.644531 186.898438 355.488281 186.898438 C 355.59375 186.898438 355.707031 186.882813 355.832031 186.875 C 355.9375 186.882813 356.046875 186.898438 356.152344 186.898438 L 356.179688 186.898438 C 356.292969 186.898438 356.398438 186.882813 356.511719 186.875 C 356.625 186.882813 356.734375 186.898438 356.851563 186.898438 C 359.6875 186.898438 363.046875 185.421875 364.378906 181.9375 C 373.070313 149.511719 387.4375 117.367188 409.28125 95.480469 C 425.921875 79.421875 444.285156 64.648438 472.648438 54.058594 C 473.035156 53.914063 473.410156 53.769531 473.804688 53.621094 C 473.902344 53.582031 474.019531 53.535156 474.109375 53.496094 C 477.148438 52.421875 478.664063 51.105469 479.378906 49.878906 C 479.621094 49.464844 479.765625 49.074219 479.855469 48.695313 L 479.855469 48.679688 C 479.867188 48.664063 479.867188 48.664063 479.867188 48.65625 C 479.917969 48.4375 479.945313 48.234375 479.945313 48.046875 C 479.945313 48.011719 479.960938 47.980469 479.960938 47.953125 C 479.960938 47.691406 479.945313 47.429688 479.917969 47.210938 "/>
<path style=" stroke:none;fill-rule:nonzero;fill:rgb(2.69928%,40.79895%,69.398499%);fill-opacity:1;" d="M 311.191406 120.640625 C 308.664063 127.820313 301.851563 132.96875 293.816406 132.96875 C 283.617188 132.96875 275.359375 124.695313 275.359375 114.507813 C 275.359375 105.609375 281.671875 98.179688 290.058594 96.441406 C 284.332031 90.847656 278.308594 85.5625 272.050781 80.703125 C 260.917969 88.234375 253.589844 100.976563 253.589844 115.421875 C 253.589844 138.570313 272.355469 157.328125 295.5 157.328125 C 306.835938 157.328125 318.515625 151.496094 326.0625 144.175781 C 321.738281 135.976563 316.730469 128.121094 311.191406 120.640625 "/>
<path style=" stroke:none;fill-rule:nonzero;fill:rgb(0.39978%,0.799561%,1.199341%);fill-opacity:1;" d="M 54.164063 153.679688 C 83.09375 153.679688 98.953125 171.839844 98.953125 182.609375 C 98.953125 189.6875 95.097656 194 87.5625 194 C 72.945313 194 77.253906 173.996094 54.164063 173.996094 C 38.320313 173.996094 25.242188 187.691406 25.242188 211.695313 C 25.242188 231.855469 33.238281 249.402344 55.089844 249.402344 C 74.945313 249.402344 74.484375 228.160156 86.636719 228.160156 C 92.792969 228.160156 98.953125 231.699219 98.953125 237.851563 C 98.953125 253.855469 79.554688 269.707031 55.089844 269.707031 C 20.464844 269.707031 0 249.859375 0 211.695313 C 0 180.457031 18.46875 153.679688 54.164063 153.679688 "/>
<path style=" stroke:none;fill-rule:nonzero;fill:rgb(0.39978%,0.799561%,1.199341%);fill-opacity:1;" d="M 144.195313 252.480469 C 157.585938 252.480469 163.28125 240.46875 163.28125 226.777344 C 163.28125 212.15625 157.273438 201.234375 144.195313 201.234375 C 131.121094 201.234375 125.113281 212.15625 125.113281 226.777344 C 125.113281 240.46875 130.808594 252.480469 144.195313 252.480469 M 144.195313 184.613281 C 171.28125 184.613281 185.75 203.074219 185.75 226.777344 C 185.75 249.246094 174.820313 269.09375 144.195313 269.09375 C 113.578125 269.09375 102.648438 249.246094 102.648438 226.777344 C 102.648438 203.074219 117.117188 184.613281 144.195313 184.613281 "/>
<path style=" stroke:none;fill-rule:nonzero;fill:rgb(0.39978%,0.799561%,1.199341%);fill-opacity:1;" d="M 190.984375 195.84375 C 190.984375 189.070313 194.0625 184.609375 201.144531 184.609375 C 208.222656 184.609375 211.304688 189.070313 211.304688 195.84375 L 211.304688 198.765625 L 211.605469 198.765625 C 217.914063 190.457031 226.074219 184.609375 238.851563 184.609375 C 252.390625 184.609375 267.15625 191.378906 267.15625 214.15625 L 267.15625 257.859375 C 267.15625 263.863281 264.703125 269.09375 255.929688 269.09375 C 247.160156 269.09375 244.691406 263.863281 244.691406 257.859375 L 244.691406 218.617188 C 244.691406 209.535156 240.230469 203.082031 230.535156 203.082031 C 222.691406 203.082031 213.457031 209.535156 213.457031 220.769531 L 213.457031 257.859375 C 213.457031 263.863281 210.992188 269.09375 202.21875 269.09375 C 193.449219 269.09375 190.984375 263.863281 190.984375 257.859375 L 190.984375 195.84375 "/>
<path style=" stroke:none;fill-rule:nonzero;fill:rgb(0.39978%,0.799561%,1.199341%);fill-opacity:1;" d="M 275.019531 195.84375 C 275.019531 189.070313 278.097656 184.609375 285.179688 184.609375 C 292.253906 184.609375 295.328125 189.070313 295.328125 195.84375 L 295.328125 198.765625 L 295.644531 198.765625 C 301.953125 190.457031 310.109375 184.609375 322.875 184.609375 C 336.417969 184.609375 351.191406 191.378906 351.191406 214.15625 L 351.191406 257.859375 C 351.191406 263.863281 348.734375 269.09375 339.957031 269.09375 C 331.1875 269.09375 328.730469 263.863281 328.730469 257.859375 L 328.730469 218.617188 C 328.730469 209.535156 324.265625 203.082031 314.566406 203.082031 C 306.722656 203.082031 297.484375 209.535156 297.484375 220.769531 L 297.484375 257.859375 C 297.484375 263.863281 295.027344 269.09375 286.253906 269.09375 C 277.484375 269.09375 275.019531 263.863281 275.019531 257.859375 L 275.019531 195.84375 "/>
<path style=" stroke:none;fill-rule:nonzero;fill:rgb(0.39978%,0.799561%,1.199341%);fill-opacity:1;" d="M 418.601563 218.15625 C 417.367188 207.847656 409.675781 200.308594 399.671875 200.308594 C 388.441406 200.308594 381.671875 207.234375 379.210938 218.15625 Z M 379.210938 231.082031 C 379.210938 242.9375 386.90625 251.550781 399.984375 251.550781 C 416.910156 251.550781 416.910156 240.472656 425.988281 240.472656 C 431.371094 240.472656 435.222656 245.089844 435.222656 249.238281 C 435.222656 262.785156 413.519531 269.09375 399.984375 269.09375 C 368.589844 269.09375 356.738281 247.859375 356.738281 228.3125 C 356.738281 202.152344 372.589844 184.609375 399.210938 184.609375 C 425.066406 184.609375 439.84375 202.925781 439.84375 221.390625 C 439.84375 229.082031 437.527344 231.082031 429.988281 231.082031 L 379.210938 231.082031 "/>
<path style=" stroke:none;fill-rule:nonzero;fill:rgb(0.39978%,0.799561%,1.199341%);fill-opacity:1;" d="M 484.472656 184.613281 C 503.242188 184.613281 517.253906 195.230469 517.253906 205.691406 C 517.253906 212.15625 512.480469 215.390625 506.785156 215.390625 C 496.175781 215.390625 500.015625 202.152344 483.859375 202.152344 C 475.089844 202.152344 464.773438 208.152344 464.773438 228.46875 C 464.773438 242.472656 471.394531 251.550781 483.707031 251.550781 C 499.40625 251.550781 496.011719 237.082031 507.859375 237.082031 C 513.554688 237.082031 517.253906 241.238281 517.253906 245.703125 C 517.253906 255.554688 506.164063 269.09375 483.089844 269.09375 C 455.390625 269.09375 442.3125 252.011719 442.3125 228.46875 C 442.3125 202.613281 456.929688 184.613281 484.472656 184.613281 "/>
<path style=" stroke:none;fill-rule:nonzero;fill:rgb(0.39978%,0.799561%,1.199341%);fill-opacity:1;" d="M 532.335938 201.382813 L 528.488281 201.382813 C 522.179688 201.382813 519.5625 198.925781 519.5625 194 C 519.5625 189.070313 522.179688 186.609375 528.488281 186.609375 L 532.335938 186.609375 L 532.335938 172.914063 C 532.335938 165.527344 536.796875 161.679688 543.566406 161.679688 C 550.335938 161.679688 554.804688 165.527344 554.804688 172.914063 L 554.804688 186.609375 L 561.574219 186.609375 C 568.191406 186.609375 571.730469 188.609375 571.730469 194 C 571.730469 199.386719 568.191406 201.382813 561.574219 201.382813 L 554.804688 201.382813 L 554.804688 246.320313 C 554.804688 249.707031 556.648438 251.550781 560.644531 251.550781 L 563.886719 251.550781 C 568.800781 251.550781 571.730469 254.324219 571.730469 259.089844 C 571.730469 265.554688 566.1875 269.09375 555.414063 269.09375 C 539.109375 269.09375 532.335938 262.324219 532.335938 249.09375 L 532.335938 201.382813 "/>
<path style=" stroke:none;fill-rule:nonzero;fill:rgb(0.39978%,0.799561%,1.199341%);fill-opacity:1;" d="M 688.539063 257.089844 C 686.21875 265.855469 682.527344 269.09375 673.296875 269.09375 C 663.757813 269.09375 660.367188 265.089844 658.214844 256.632813 L 641.761719 189.070313 L 641.449219 189.070313 L 624.980469 256.632813 C 622.980469 265.089844 619.4375 269.09375 609.898438 269.09375 C 600.660156 269.09375 596.972656 265.855469 594.664063 257.089844 L 572.96875 172.917969 C 572.355469 170.605469 571.730469 168.144531 571.730469 165.679688 C 571.730469 157.988281 578.046875 154.296875 583.894531 154.296875 C 590.347656 154.296875 594.199219 157.21875 595.742188 164.605469 L 610.671875 238.15625 L 610.976563 238.15625 L 628.214844 163.683594 C 629.597656 157.523438 632.0625 154.296875 641.449219 154.296875 C 652.0625 154.296875 654.222656 159.371094 655.761719 166.300781 L 672.535156 238.15625 L 672.835938 238.15625 L 687.921875 164.605469 C 689.460938 157.21875 693.300781 154.296875 699.308594 154.296875 C 705.160156 154.296875 711.464844 157.988281 711.464844 165.679688 C 711.464844 168.144531 710.847656 170.605469 710.238281 172.917969 L 688.539063 257.089844 "/>
<path style=" stroke:none;fill-rule:nonzero;fill:rgb(0.39978%,0.799561%,1.199341%);fill-opacity:1;" d="M 716.089844 195.84375 C 716.089844 189.84375 718.554688 184.609375 727.324219 184.609375 C 736.101563 184.609375 738.558594 189.84375 738.558594 195.84375 L 738.558594 257.859375 C 738.558594 263.863281 736.101563 269.09375 727.324219 269.09375 C 718.554688 269.09375 716.089844 263.863281 716.089844 257.859375 Z M 727.324219 153.679688 C 733.78125 153.679688 739.027344 158.910156 739.027344 165.371094 C 739.027344 171.839844 733.78125 177.066406 727.324219 177.066406 C 720.863281 177.066406 715.628906 171.839844 715.628906 165.371094 C 715.628906 158.910156 720.863281 153.679688 727.324219 153.679688 "/>
<path style=" stroke:none;fill-rule:nonzero;fill:rgb(0.39978%,0.799561%,1.199341%);fill-opacity:1;" d="M 777.34375 184.613281 C 794.421875 184.613281 811.660156 191.386719 811.660156 201.695313 C 811.660156 206.925781 808.121094 211.542969 802.273438 211.542969 C 793.496094 211.542969 793.191406 201.230469 779.035156 201.230469 C 771.1875 201.230469 766.101563 203.386719 766.101563 208.152344 C 766.101563 213.386719 771.1875 214.617188 778.113281 216.152344 L 787.496094 218.308594 C 800.269531 221.238281 815.507813 226.625 815.507813 242.3125 C 815.507813 260.625 797.816406 269.09375 780.878906 269.09375 C 760.570313 269.09375 743.644531 260.015625 743.644531 248.9375 C 743.644531 244.011719 746.410156 239.550781 752.726563 239.550781 C 762.414063 239.550781 763.339844 253.398438 779.957031 253.398438 C 787.964844 253.398438 793.03125 249.851563 793.03125 245.242188 C 793.03125 239.550781 788.117188 238.625 780.117188 236.621094 L 766.878906 233.390625 C 753.804688 230.15625 743.644531 224.773438 743.644531 209.699219 C 743.644531 191.386719 761.800781 184.613281 777.34375 184.613281 "/>
<path style=" stroke:none;fill-rule:nonzero;fill:rgb(0.39978%,0.799561%,1.199341%);fill-opacity:1;" d="M 880.902344 218.15625 C 879.679688 207.847656 871.984375 200.308594 861.980469 200.308594 C 850.746094 200.308594 843.976563 207.234375 841.519531 218.15625 Z M 841.519531 231.082031 C 841.519531 242.9375 849.210938 251.550781 862.285156 251.550781 C 879.214844 251.550781 879.214844 240.472656 888.296875 240.472656 C 893.6875 240.472656 897.523438 245.089844 897.523438 249.238281 C 897.523438 262.785156 875.824219 269.09375 862.285156 269.09375 C 830.898438 269.09375 819.050781 247.859375 819.050781 228.3125 C 819.050781 202.152344 834.90625 184.609375 861.519531 184.609375 C 887.367188 184.609375 902.144531 202.925781 902.144531 221.390625 C 902.144531 229.082031 899.847656 231.082031 892.296875 231.082031 L 841.519531 231.082031 "/>
<g clip-path="url(#clip1)" clip-rule="nonzero">
<path style=" stroke:none;fill-rule:nonzero;fill:rgb(0.39978%,0.799561%,1.199341%);fill-opacity:1;" d="M 916.183594 170.453125 C 915.496094 170.074219 914.398438 169.882813 912.890625 169.882813 L 910.558594 169.882813 L 910.558594 175.476563 L 913.023438 175.476563 C 914.175781 175.476563 915.03125 175.359375 915.609375 175.132813 C 916.675781 174.707031 917.207031 173.902344 917.207031 172.71875 C 917.207031 171.59375 916.863281 170.839844 916.183594 170.453125 M 913.242188 168.023438 C 915.160156 168.023438 916.5625 168.210938 917.460938 168.585938 C 919.058594 169.25 919.851563 170.550781 919.851563 172.492188 C 919.851563 173.867188 919.351563 174.890625 918.34375 175.542969 C 917.8125 175.882813 917.066406 176.136719 916.113281 176.28125 C 917.320313 176.476563 918.207031 176.976563 918.769531 177.796875 C 919.320313 178.613281 919.601563 179.414063 919.601563 180.1875 L 919.601563 181.316406 C 919.601563 181.675781 919.621094 182.0625 919.640625 182.464844 C 919.671875 182.875 919.710938 183.140625 919.777344 183.269531 L 919.875 183.460938 L 917.328125 183.460938 C 917.308594 183.40625 917.300781 183.355469 917.277344 183.3125 C 917.277344 183.257813 917.257813 183.199219 917.246094 183.132813 L 917.1875 182.644531 L 917.1875 181.414063 C 917.1875 179.636719 916.703125 178.457031 915.738281 177.886719 C 915.160156 177.554688 914.15625 177.386719 912.707031 177.386719 L 910.558594 177.386719 L 910.558594 183.460938 L 907.847656 183.460938 L 907.847656 168.023438 Z M 904.964844 167.234375 C 902.621094 169.597656 901.445313 172.457031 901.445313 175.800781 C 901.445313 179.171875 902.613281 182.042969 904.953125 184.414063 C 907.308594 186.792969 910.164063 187.980469 913.515625 187.980469 C 916.871094 187.980469 919.726563 186.792969 922.070313 184.414063 C 924.425781 182.042969 925.601563 179.171875 925.601563 175.800781 C 925.601563 172.457031 924.425781 169.597656 922.070313 167.234375 C 919.710938 164.863281 916.851563 163.679688 913.515625 163.679688 C 910.171875 163.679688 907.335938 164.863281 904.964844 167.234375 M 923.464844 185.761719 C 920.734375 188.519531 917.40625 189.894531 913.515625 189.894531 C 909.617188 189.894531 906.308594 188.519531 903.574219 185.761719 C 900.859375 183.011719 899.492188 179.6875 899.492188 175.78125 C 899.492188 171.914063 900.867188 168.609375 903.617188 165.859375 C 906.34375 163.128906 909.644531 161.765625 913.515625 161.765625 C 917.40625 161.765625 920.734375 163.128906 923.464844 165.859375 C 926.214844 168.59375 927.585938 171.898438 927.585938 175.78125 C 927.585938 179.671875 926.214844 183 923.464844 185.761719 "/>
</g>
</g>
</svg>
